<svg width="29" height="29" viewBox="0 0 29 29" fill="none" xmlns="http://www.w3.org/2000/svg">
<path d="M14.5 0C6.50506 0 0 6.50506 0 14.5C0 17.2876 0.781188 19.9647 2.262 22.272L0.06525 27.7566C-0.068875 28.0938 0.00906249 28.478 0.266438 28.7354C0.438625 28.9076 0.670625 29 0.90625 29C1.02044 29 1.13281 28.9782 1.24337 28.9347L6.728 26.738C9.03531 28.2188 11.7124 29 14.5 29C22.4949 29 29 22.4949 29 14.5C29 6.50506 22.4949 0 14.5 0ZM14.5 27.1875C11.9154 27.1875 9.44131 26.4226 7.34787 24.9744C7.19562 24.8675 7.01437 24.8131 6.83313 24.8131C6.71894 24.8131 6.60475 24.8349 6.496 24.8784L2.53387 26.4661L4.12162 22.504C4.234 22.2213 4.19775 21.9004 4.02556 21.6521C2.57737 19.5587 1.8125 17.0846 1.8125 14.5C1.8125 7.50375 7.50375 1.8125 14.5 1.8125C21.4963 1.8125 27.1875 7.50375 27.1875 14.5C27.1875 21.4963 21.4963 27.1875 14.5 27.1875Z" fill="white"/>
</svg>
