<svg width="26" height="27" viewBox="0 0 26 27" fill="none" xmlns="http://www.w3.org/2000/svg">
<path d="M9.26559 8.31885L11.7812 5.8032V19.1109C11.7812 19.4341 11.9096 19.7441 12.1382 19.9727C12.3668 20.2012 12.6768 20.3296 13 20.3296C13.3232 20.3296 13.6332 20.2012 13.8618 19.9727C14.0903 19.7441 14.2187 19.4341 14.2187 19.1109V5.8032L16.7344 8.31885C16.8475 8.43253 16.9818 8.52278 17.1298 8.58444C17.2778 8.6461 17.4365 8.67795 17.5969 8.67816C17.7572 8.67838 17.916 8.64696 18.0641 8.58571C18.2123 8.52446 18.3469 8.43457 18.4603 8.3212C18.5737 8.20783 18.6636 8.07321 18.7248 7.92504C18.7861 7.77688 18.8175 7.61808 18.8173 7.45776C18.817 7.29743 18.7852 7.13872 18.7235 6.99072C18.6619 6.84273 18.5716 6.70835 18.458 6.59529L13.8618 1.99908C13.7486 1.8859 13.6143 1.79612 13.4664 1.73487C13.3185 1.67362 13.16 1.64209 13 1.64209C12.8399 1.64209 12.6814 1.67362 12.5336 1.73487C12.3857 1.79612 12.2514 1.8859 12.1382 1.99908L7.54202 6.59529C7.42834 6.70835 7.33809 6.84273 7.27643 6.99072C7.21478 7.13872 7.18293 7.29743 7.18271 7.45776C7.18249 7.61808 7.21391 7.77688 7.27516 7.92504C7.33642 8.07321 7.4263 8.20783 7.53967 8.3212C7.65304 8.43457 7.78766 8.52446 7.93583 8.58571C8.08399 8.64696 8.24279 8.67838 8.40312 8.67816C8.56344 8.67795 8.72215 8.6461 8.87015 8.58444C9.01815 8.52278 9.15253 8.43253 9.26559 8.31885V8.31885Z" fill="#2F80ED"/>
<path d="M23.5625 12.2046C23.2393 12.2046 22.9293 12.333 22.7007 12.5616C22.4722 12.7901 22.3438 13.1001 22.3438 13.4233V22.7671H3.65625V13.4233C3.65625 13.1001 3.52785 12.7901 3.29929 12.5616C3.07073 12.333 2.76073 12.2046 2.4375 12.2046C2.11427 12.2046 1.80427 12.333 1.57571 12.5616C1.34715 12.7901 1.21875 13.1001 1.21875 13.4233V23.1733C1.21875 23.7121 1.43276 24.2287 1.81369 24.6097C2.19462 24.9906 2.71128 25.2046 3.25 25.2046H22.75C23.2887 25.2046 23.8054 24.9906 24.1863 24.6097C24.5672 24.2287 24.7812 23.7121 24.7812 23.1733V13.4233C24.7812 13.1001 24.6528 12.7901 24.4243 12.5616C24.1957 12.333 23.8857 12.2046 23.5625 12.2046Z" fill="#2F80ED"/>
</svg>
