<svg width="14" height="11" viewBox="0 0 14 11" fill="none" xmlns="http://www.w3.org/2000/svg">
<path d="M12.7938 0.455078H2.07892C1.90304 0.455078 1.73838 0.498318 1.58942 0.56959L7.41095 6.39113L8.71575 5.13716C8.71575 5.13716 8.71585 5.13703 8.71588 5.13698C8.7159 5.13693 8.716 5.13688 8.716 5.13688L13.2834 0.569691C13.1345 0.498369 12.9697 0.455078 12.7938 0.455078Z" fill="white"/>
<path d="M13.8222 1.1084L9.52399 5.40637L13.822 9.70442C13.8933 9.55545 13.9365 9.3908 13.9365 9.21491V1.59773C13.9365 1.42195 13.8934 1.25731 13.8222 1.1084Z" fill="white"/>
<path d="M1.0511 1.1084C0.979825 1.25737 0.936584 1.42202 0.936584 1.5979V9.21509C0.936584 9.39087 0.979774 9.55555 1.05099 9.70447L5.3492 5.4065L1.0511 1.1084Z" fill="white"/>
<path d="M8.9854 5.94488L7.68042 7.19899C7.60603 7.27339 7.50858 7.31059 7.41116 7.31059C7.31373 7.31059 7.21626 7.27339 7.14189 7.19899L5.88769 5.94482L1.58942 10.2428C1.73841 10.3141 1.90317 10.3574 2.0791 10.3574H12.7939C12.9698 10.3574 13.1345 10.3142 13.2834 10.2429L8.9854 5.94488Z" fill="white"/>
</svg>
